<svg width="738" height="819" viewBox="0 0 738 819" fill="none" xmlns="http://www.w3.org/2000/svg">
<path d="M697.061 643.04C722.05 628.761 737.472 602.186 737.472 573.405V245.079C737.472 216.297 722.05 189.723 697.061 175.443L408.528 10.5673C383.871 -3.52245 353.602 -3.52247 328.944 10.5672L40.4112 175.443C15.4219 189.723 0 216.297 0 245.079V573.405C0 602.186 15.422 628.761 40.4112 643.04L328.944 807.916C353.602 822.006 383.871 822.006 408.528 807.916L697.061 643.04Z" fill="url(#paint0_linear_4415_9647)"/>
<path d="M602.093 441.647C594.076 426.837 585.809 415.482 577.04 407.83C571.45 402.686 565.596 397.825 559.503 393.267L567.019 388.083C578.293 381.172 587.062 367.596 593.826 346.615C598.762 331.4 600.133 315.281 597.834 299.469C595.614 284.616 590.602 270.301 583.053 257.26C576.134 245.137 566.752 234.549 555.495 226.158C544.729 218.49 532.691 212.727 519.92 209.126C506.777 205.123 493.09 203.125 479.334 203.202H477.58V180.987H426.222V203.202H327.012L232.562 372.286H165.671V432.02H198.991L100.283 608.509L96.2742 615.667H146.631L171.684 571.237H171.433L222.04 481.141L250.851 429.799H352.065V615.667H426.222V638.13H477.58V615.667C502.884 614.927 522.926 612.459 537.457 607.769C553.53 603.063 568.165 594.496 580.047 582.838C589.931 573.198 598.14 562.024 604.348 549.762C611.943 532.673 615.457 514.095 614.62 495.458C614.369 474.723 610.11 456.704 602.093 441.647ZM352.065 372.286H282.919L352.065 248.62V372.286ZM396.158 248.62H470.816C480.842 248.628 490.838 249.704 500.629 251.829C509.706 253.491 518.379 256.842 526.183 261.703C532.697 265.652 538.459 272.81 543.219 282.684C548.379 294.406 550.114 307.315 548.23 319.956C546.726 333.532 542.718 344.146 535.954 351.551C529.176 359.273 520.177 364.782 510.149 367.349C496.916 370.83 483.258 372.491 469.563 372.286H396.158V248.62ZM560.004 516.686C557.75 534.952 550.985 547.54 539.962 554.452C529.043 561.75 516.651 566.634 503.635 568.768C488.783 570.82 473.782 571.646 458.79 571.237H396.158V429.799H475.826C487.715 429.71 499.598 430.369 511.402 431.774C520.246 433.171 528.502 437.024 535.202 442.881C543.382 449.625 549.966 458.05 554.493 467.565C560.255 480.894 562.259 497.432 560.004 516.686Z" fill="white" stroke="white" stroke-width="5.48571"/>
<defs>
<linearGradient id="paint0_linear_4415_9647" x1="184.442" y1="54.3866" x2="614.026" y2="724.84" gradientUnits="userSpaceOnUse">
<stop stop-color="#343DD5"/>
<stop offset="0.5" stop-color="#1167C0"/>
<stop offset="0.76" stop-color="#2484AE"/>
<stop offset="1" stop-color="#339CA0"/>
</linearGradient>
</defs>
</svg>
